<svg version="1.0" xmlns="http://www.w3.org/2000/svg"
 width="719.000000pt" height="205.000000pt" viewBox="0 0 719.000000 205.000000"
 preserveAspectRatio="xMidYMid meet">
<g transform="translate(0.000000,205.000000) scale(0.100000,-0.100000)"
fill="#154d84" stroke="none">
<path d="M969 1833 c-24 -14 -76 -50 -116 -80 -40 -30 -87 -58 -105 -62 -23
-5 -34 -14 -39 -31 -7 -25 -7 -25 -8 3 l-1 27 -89 0 c-86 0 -90 -1 -110 -27
-11 -16 -45 -55 -76 -88 -31 -33 -96 -102 -143 -153 l-86 -94 -3 -116 -4 -117
90 89 c50 49 88 93 85 98 -3 4 1 8 9 8 19 0 208 190 267 268 3 4 17 13 33 21
15 8 27 21 27 28 0 8 4 11 10 8 5 -3 18 -1 28 4 41 22 193 13 260 -14 17 -8
32 -12 32 -9 0 3 10 -1 23 -8 12 -7 28 -12 36 -13 8 0 19 -13 24 -30 12 -36
202 -255 222 -255 8 0 12 -6 10 -13 -3 -6 33 -50 80 -97 l85 -85 0 88 c0 61
-4 87 -12 87 -9 0 -9 3 0 12 23 23 12 43 -61 114 -39 40 -90 93 -112 120 -67
80 -115 125 -125 119 -6 -3 -15 6 -20 20 -6 15 -46 66 -89 115 l-79 88 -43
-25z"/>
<path d="M820 1436 c0 -8 -7 -16 -15 -20 -9 -3 -15 0 -15 9 0 30 -17 14 -29
-26 -12 -41 -26 -43 -33 -4 -3 17 -12 10 -60 -40 -32 -33 -150 -154 -263 -269
l-205 -210 0 -56 c0 -55 2 -59 58 -121 31 -35 86 -97 121 -137 62 -71 64 -72
84 -55 11 10 101 106 200 213 427 462 471 514 463 536 -3 8 -10 12 -16 9 -5
-3 -10 1 -10 9 0 9 -4 16 -8 16 -4 0 -33 32 -62 70 -30 39 -66 73 -78 77 -33
8 -56 -18 -55 -62 1 -38 -7 -44 -27 -20 -10 12 -8 21 14 49 14 19 26 37 26 40
0 3 -20 6 -45 6 -32 0 -45 -4 -45 -14z"/>
<path d="M2397 1376 c-51 -19 -72 -39 -102 -99 -25 -50 -25 -55 -25 -280 0
-262 5 -292 65 -353 51 -53 128 -73 214 -56 96 20 151 74 171 170 17 76 12 82
-63 82 l-64 0 -6 -42 c-10 -77 -92 -115 -148 -69 -20 16 -25 32 -30 102 -4 46
-8 144 -8 217 -1 142 10 191 47 211 23 12 71 14 97 5 22 -9 45 -57 45 -94 l0
-30 70 0 70 0 0 28 c0 89 -55 174 -132 206 -46 19 -149 20 -201 2z"/>
<path d="M3234 1381 c-5 -6 -5 -776 0 -782 2 -2 76 -2 163 1 152 5 161 6 200
32 25 17 49 45 64 75 23 45 24 61 27 258 4 265 -2 297 -68 359 -27 25 -50 47
-52 47 -9 4 -330 13 -334 10z m283 -136 c12 -9 27 -32 33 -53 13 -48 13 -346
0 -394 -16 -55 -51 -78 -121 -78 l-59 0 0 270 0 270 63 0 c40 0 70 -6 84 -15z"/>
<path d="M4875 1371 c-52 -23 -101 -80 -115 -132 -7 -26 -10 -126 -8 -279 l3
-238 30 -43 c43 -60 72 -79 146 -91 53 -9 73 -8 121 6 72 21 110 53 137 116
19 44 21 65 19 178 l-3 127 -112 3 -113 3 0 -61 0 -60 50 0 50 0 0 -66 c0 -59
-3 -68 -29 -95 -40 -40 -106 -41 -142 -3 -23 25 -24 30 -27 222 -2 108 0 212
3 231 9 49 46 81 93 81 58 0 90 -29 98 -91 l7 -49 63 0 64 0 0 48 c-1 85 -53
163 -132 196 -51 22 -153 20 -203 -3z"/>
<path d="M5823 1384 c-8 -4 -13 -27 -13 -65 l0 -59 65 0 66 0 -3 63 -3 62 -50
2 c-27 1 -56 0 -62 -3z"/>
<path d="M6319 1383 c0 -5 0 -60 1 -123 1 -64 -2 -124 -6 -133 -5 -15 -9 -14
-35 8 -72 60 -166 38 -210 -47 -18 -36 -22 -65 -27 -193 -5 -166 3 -216 44
-264 48 -57 152 -63 199 -11 23 25 39 26 32 1 -3 -14 2 -20 22 -24 15 -3 36
-4 47 -2 10 2 27 4 37 4 16 1 17 27 17 396 l0 395 -60 0 c-33 0 -60 -3 -61 -7z
m-13 -364 c12 -25 15 -56 12 -156 -3 -117 -4 -126 -27 -144 -34 -27 -75 -24
-100 7 -19 24 -21 40 -21 153 0 114 2 129 20 149 15 15 33 22 60 22 34 0 42
-4 56 -31z"/>
<path d="M1959 1347 l-57 -32 -6 -59 c-3 -33 -4 -61 -2 -64 3 -2 29 10 59 27
30 17 58 31 61 31 4 0 6 -145 4 -322 l-3 -323 62 -3 62 -3 7 37 c4 20 4 73 0
117 -3 45 -6 205 -6 355 l0 272 -62 -1 c-51 0 -74 -6 -119 -32z"/>
<path d="M3922 1159 c-47 -14 -109 -79 -122 -130 -7 -26 -10 -96 -8 -178 4
-153 13 -181 75 -228 33 -26 44 -28 123 -28 80 0 90 2 123 28 45 34 65 62 73
105 l7 32 -67 0 c-51 0 -66 -3 -66 -14 0 -21 -39 -46 -71 -46 -44 0 -68 28
-71 85 l-3 50 140 5 140 5 3 55 c12 189 -113 306 -276 259z m131 -130 c19 -23
23 -94 6 -104 -6 -4 -39 -4 -75 0 l-64 7 0 41 c0 57 32 91 80 83 19 -3 43 -15
53 -27z"/>
<path d="M6667 1156 c-52 -19 -76 -42 -103 -101 -21 -44 -24 -65 -24 -176 0
-69 5 -141 12 -160 29 -87 93 -131 190 -131 96 0 165 53 193 150 6 21 4 22
-50 22 -50 0 -60 -3 -85 -30 -33 -35 -76 -40 -110 -12 -16 13 -22 29 -23 67
l-2 50 138 3 137 3 0 87 c0 63 -6 98 -19 127 -43 94 -151 137 -254 101z m122
-113 c15 -13 22 -31 24 -63 l2 -45 -77 -3 -78 -3 0 31 c0 35 23 86 42 93 27
11 67 6 87 -10z"/>
<path d="M4250 1153 c0 -5 7 -30 16 -58 16 -54 61 -220 103 -385 l27 -105 66
-3 65 -3 42 153 c24 84 58 208 77 274 19 67 34 124 34 128 0 3 -28 6 -63 6
l-64 0 -11 -52 c-41 -180 -76 -300 -83 -282 -4 10 -24 90 -44 177 l-37 157
-64 0 c-35 0 -64 -3 -64 -7z"/>
<path d="M5310 933 c0 -202 3 -233 19 -270 25 -55 61 -77 122 -76 36 0 61 8
89 27 38 25 40 25 40 6 0 -18 7 -20 60 -20 l60 0 0 280 0 280 -65 0 -64 0 2
-209 c2 -193 0 -211 -17 -230 -24 -27 -70 -27 -96 -1 -19 19 -20 33 -20 230
l0 210 -65 0 -65 0 0 -227z"/>
<path d="M5817 1153 c-2 -5 -5 -131 -6 -280 l-3 -273 66 0 66 0 0 280 0 280
-59 0 c-33 0 -62 -3 -64 -7z"/>
<path d="M1191 1067 c-52 -59 -99 -112 -475 -524 -121 -134 -164 -187 -159
-199 5 -12 3 -15 -6 -9 -10 6 -11 2 -6 -16 13 -47 74 -169 84 -169 6 0 18 11
28 26 10 14 30 38 46 54 15 16 27 36 27 44 0 9 6 16 13 16 12 0 128 126 188
205 60 77 223 272 241 288 11 9 36 17 57 17 39 0 76 29 146 115 l37 45 -77 85
c-43 47 -80 85 -84 85 -3 -1 -30 -29 -60 -63z"/>
<path d="M2809 995 c0 -3 -1 -26 -1 -52 l-1 -48 154 -6 c85 -3 157 -4 162 -2
4 2 7 29 7 59 l0 54 -160 0 c-88 0 -160 -2 -161 -5z"/>
</g>
</svg>
